<svg xmlns="http://www.w3.org/2000/svg" viewBox="0 0 64 64" width="512" height="512" shape-rendering="crispEdges">
<rect width="64" height="64" fill="#8fd3f7"/>
<path fill="#8a5a3a" d="M22 9h1v1h-1zM41 9h1v1h-1zM21 10h1v1h-1zM23 10h1v1h-1zM40 10h1v1h-1zM42 10h1v1h-1zM21 11h1v1h-1zM24 11h1v1h-1zM39 11h1v1h-1zM42 11h1v1h-1zM21 12h1v1h-1zM25 12h1v1h-1zM38 12h1v1h-1zM42 12h1v1h-1zM21 13h1v1h-1zM26 13h1v1h-1zM37 13h1v1h-1zM42 13h1v1h-1zM21 14h1v1h-1zM27 14h1v1h-1zM36 14h1v1h-1zM42 14h1v1h-1zM21 15h1v1h-1zM28 15h8v1h-8zM42 15h1v1h-1zM21 16h1v1h-1zM42 16h1v1h-1zM21 17h1v1h-1zM42 17h1v1h-1zM20 18h1v1h-1zM43 18h1v1h-1zM20 19h1v1h-1zM43 19h1v1h-1zM20 20h1v1h-1zM43 20h1v1h-1zM20 21h1v1h-1zM43 21h1v1h-1zM20 22h1v1h-1zM43 22h1v1h-1zM19 23h1v1h-1zM44 23h1v1h-1zM19 24h1v1h-1zM44 24h1v1h-1zM19 25h1v1h-1zM44 25h1v1h-1zM19 26h1v1h-1zM44 26h1v1h-1zM19 27h1v1h-1zM44 27h1v1h-1zM19 28h1v1h-1zM44 28h1v1h-1zM20 29h1v1h-1zM43 29h1v1h-1zM20 30h6v1h-6zM38 30h6v1h-6zM20 31h1v1h-1zM26 31h1v1h-1zM37 31h1v1h-1zM43 31h1v1h-1zM20 32h1v1h-1zM26 32h1v1h-1zM37 32h1v1h-1zM43 32h1v1h-1zM20 33h1v1h-1zM26 33h1v1h-1zM37 33h1v1h-1zM43 33h1v1h-1zM21 34h5v1h-5zM38 34h5v1h-5z"/>
<path fill="#fbfbf7" d="M22 10h1v1h-1zM41 10h1v1h-1zM22 11h2v1h-2zM40 11h2v1h-2zM22 12h3v1h-3zM39 12h3v1h-3zM22 13h4v1h-4zM38 13h4v1h-4zM22 14h2v1h-2zM25 14h2v1h-2zM37 14h2v1h-2zM40 14h2v1h-2zM22 15h2v1h-2zM26 15h2v1h-2zM36 15h2v1h-2zM40 15h2v1h-2zM22 16h2v1h-2zM27 16h10v1h-10zM40 16h2v1h-2zM22 17h2v1h-2zM26 17h12v1h-12zM40 17h2v1h-2zM21 18h22v1h-22zM21 19h22v1h-22zM21 20h22v1h-22zM21 21h22v1h-22zM21 22h22v1h-22zM20 23h5v1h-5zM29 23h6v1h-6zM39 23h5v1h-5zM20 24h5v1h-5zM29 24h6v1h-6zM39 24h5v1h-5zM20 25h5v1h-5zM29 25h6v1h-6zM39 25h5v1h-5zM20 26h5v1h-5zM29 26h6v1h-6zM39 26h5v1h-5zM20 27h5v1h-5zM29 27h6v1h-6zM39 27h5v1h-5zM20 28h24v1h-24zM21 29h1v1h-1zM25 29h6v1h-6zM33 29h6v1h-6zM42 29h1v1h-1zM26 30h12v1h-12zM21 31h5v1h-5zM27 31h10v1h-10zM38 31h5v1h-5zM21 32h5v1h-5zM38 32h5v1h-5zM21 33h1v1h-1zM23 33h1v1h-1zM25 33h1v1h-1zM38 33h1v1h-1zM40 33h1v1h-1zM42 33h1v1h-1z"/>
<path fill="#ffb3c1" d="M24 14h1v1h-1zM39 14h1v1h-1zM24 15h2v1h-2zM38 15h2v1h-2zM24 16h3v1h-3zM37 16h3v1h-3zM24 17h2v1h-2zM38 17h2v1h-2z"/>
<path fill="#ffffff" d="M47 18h2v1h-2zM46 19h4v1h-4zM45 20h6v1h-6zM44 21h8v1h-8zM11 22h2v1h-2zM44 22h9v1h-9zM10 23h4v1h-4zM26 23h2v1h-2zM36 23h2v1h-2zM45 23h9v1h-9zM9 24h6v1h-6zM26 24h2v1h-2zM36 24h2v1h-2zM45 24h10v1h-10zM8 25h8v1h-8zM45 25h11v1h-11zM7 26h10v1h-10zM45 26h12v1h-12zM6 27h12v1h-12zM5 28h14v1h-14zM4 29h16v1h-16z"/>
<path fill="#2b3a6b" d="M25 23h1v1h-1zM28 23h1v1h-1zM35 23h1v1h-1zM38 23h1v1h-1zM25 24h1v1h-1zM28 24h1v1h-1zM35 24h1v1h-1zM38 24h1v1h-1zM25 25h4v1h-4zM35 25h4v1h-4zM25 26h4v1h-4zM35 26h4v1h-4zM25 27h4v1h-4zM35 27h4v1h-4z"/>
<path fill="#8597b0" d="M45 27h12v1h-12zM45 28h13v1h-13zM44 29h15v1h-15zM44 30h16v1h-16zM44 31h17v1h-17zM62 34h1v1h-1zM62 35h2v1h-2zM62 36h2v1h-2zM62 37h2v1h-2zM62 38h2v1h-2zM62 39h2v1h-2zM62 40h2v1h-2zM62 41h2v1h-2z"/>
<path fill="#ffc7d4" d="M22 29h3v1h-3zM39 29h3v1h-3z"/>
<path fill="#ff7f9e" d="M31 29h2v1h-2z"/>
<path fill="#8e9db3" d="M4 30h16v1h-16zM3 31h17v1h-17zM2 32h1v1h-1zM1 33h1v1h-1zM1 34h1v1h-1zM0 35h2v1h-2zM0 36h2v1h-2zM0 37h2v1h-2zM0 38h2v1h-2zM0 39h2v1h-2zM0 40h2v1h-2zM0 41h2v1h-2z"/>
<path fill="#4a2913" d="M3 32h17v1h-17zM27 32h10v1h-10zM44 32h17v1h-17zM2 33h1v1h-1zM61 33h1v1h-1zM2 34h1v1h-1zM61 34h1v1h-1zM2 35h1v1h-1zM61 35h1v1h-1zM2 36h1v1h-1zM61 36h1v1h-1zM2 37h1v1h-1zM18 37h1v1h-1zM27 37h1v1h-1zM45 37h1v1h-1zM57 37h1v1h-1zM61 37h1v1h-1zM2 38h1v1h-1zM10 38h8v1h-8zM27 38h1v1h-1zM57 38h1v1h-1zM61 38h1v1h-1zM2 39h1v1h-1zM10 39h8v1h-8zM27 39h1v1h-1zM57 39h1v1h-1zM61 39h1v1h-1zM2 40h1v1h-1zM9 40h1v1h-1zM21 40h1v1h-1zM27 40h1v1h-1zM48 40h1v1h-1zM57 40h1v1h-1zM61 40h1v1h-1zM2 41h1v1h-1zM9 41h1v1h-1zM21 41h1v1h-1zM27 41h1v1h-1zM45 41h3v1h-3zM52 41h2v1h-2zM57 41h1v1h-1zM61 41h1v1h-1zM2 42h1v1h-1zM9 42h1v1h-1zM21 42h1v1h-1zM27 42h1v1h-1zM45 42h3v1h-3zM52 42h2v1h-2zM57 42h1v1h-1zM61 42h1v1h-1zM2 43h1v1h-1zM9 43h1v1h-1zM21 43h1v1h-1zM27 43h1v1h-1zM45 43h1v1h-1zM51 43h1v1h-1zM57 43h1v1h-1zM61 43h1v1h-1zM2 44h1v1h-1zM21 44h1v1h-1zM27 44h1v1h-1zM45 44h1v1h-1zM51 44h1v1h-1zM57 44h1v1h-1zM61 44h1v1h-1zM2 45h1v1h-1zM21 45h1v1h-1zM27 45h1v1h-1zM45 45h1v1h-1zM51 45h1v1h-1zM57 45h1v1h-1zM61 45h1v1h-1zM2 46h1v1h-1zM21 46h1v1h-1zM27 46h1v1h-1zM45 46h1v1h-1zM51 46h1v1h-1zM57 46h1v1h-1zM61 46h1v1h-1zM2 47h1v1h-1zM9 47h9v1h-9zM21 47h1v1h-1zM27 47h1v1h-1zM45 47h1v1h-1zM49 47h3v1h-3zM57 47h1v1h-1zM61 47h1v1h-1zM2 48h1v1h-1zM9 48h9v1h-9zM21 48h1v1h-1zM27 48h1v1h-1zM45 48h1v1h-1zM49 48h3v1h-3zM57 48h1v1h-1zM61 48h1v1h-1zM2 49h1v1h-1zM9 49h1v1h-1zM21 49h1v1h-1zM27 49h1v1h-1zM45 49h1v1h-1zM57 49h1v1h-1zM61 49h1v1h-1zM2 50h1v1h-1zM9 50h1v1h-1zM21 50h1v1h-1zM27 50h1v1h-1zM45 50h1v1h-1zM57 50h1v1h-1zM61 50h1v1h-1zM2 51h1v1h-1zM9 51h1v1h-1zM21 51h1v1h-1zM27 51h1v1h-1zM45 51h1v1h-1zM57 51h1v1h-1zM61 51h1v1h-1zM2 52h1v1h-1zM9 52h1v1h-1zM21 52h1v1h-1zM27 52h1v1h-1zM45 52h1v1h-1zM57 52h1v1h-1zM61 52h1v1h-1zM2 53h1v1h-1zM9 53h1v1h-1zM21 53h1v1h-1zM45 53h1v1h-1zM57 53h1v1h-1zM61 53h1v1h-1zM2 54h1v1h-1zM9 54h1v1h-1zM21 54h1v1h-1zM45 54h1v1h-1zM57 54h1v1h-1zM61 54h1v1h-1zM2 55h1v1h-1zM9 55h1v1h-1zM21 55h1v1h-1zM39 55h1v1h-1zM45 55h1v1h-1zM57 55h1v1h-1zM61 55h1v1h-1zM2 56h1v1h-1zM7 56h3v1h-3zM19 56h3v1h-3zM25 56h15v1h-15zM43 56h3v1h-3zM55 56h3v1h-3zM61 56h1v1h-1zM2 57h1v1h-1zM7 57h3v1h-3zM19 57h3v1h-3zM25 57h15v1h-15zM43 57h3v1h-3zM55 57h3v1h-3zM61 57h1v1h-1zM3 58h11v1h-11zM19 58h26v1h-26zM50 58h11v1h-11zM13 59h1v1h-1zM19 59h1v1h-1zM44 59h1v1h-1zM50 59h1v1h-1zM13 60h1v1h-1zM19 60h1v1h-1zM44 60h1v1h-1zM50 60h1v1h-1zM13 61h1v1h-1zM19 61h1v1h-1zM44 61h1v1h-1zM50 61h1v1h-1zM13 62h1v1h-1zM19 62h1v1h-1zM44 62h1v1h-1zM50 62h1v1h-1zM13 63h1v1h-1zM19 63h1v1h-1zM44 63h1v1h-1zM50 63h1v1h-1z"/>
<path fill="#9b6436" d="M3 33h17v1h-17zM27 33h10v1h-10zM44 33h17v1h-17zM3 34h18v1h-18zM26 34h12v1h-12zM43 34h18v1h-18zM3 35h6v1h-6zM18 35h6v1h-6zM27 35h15v1h-15zM45 35h9v1h-9zM57 35h4v1h-4zM3 36h6v1h-6zM18 36h6v1h-6zM27 36h15v1h-15zM45 36h9v1h-9zM57 36h4v1h-4zM3 37h6v1h-6zM19 37h5v1h-5zM28 37h14v1h-14zM46 37h8v1h-8zM58 37h3v1h-3zM3 38h3v1h-3zM9 38h1v1h-1zM21 38h3v1h-3zM28 38h14v1h-14zM48 38h3v1h-3zM58 38h3v1h-3zM3 39h3v1h-3zM9 39h1v1h-1zM21 39h3v1h-3zM28 39h14v1h-14zM48 39h3v1h-3zM58 39h3v1h-3zM3 40h3v1h-3zM10 40h8v1h-8zM22 40h2v1h-2zM28 40h14v1h-14zM49 40h2v1h-2zM58 40h3v1h-3zM3 41h1v1h-1zM60 41h1v1h-1zM3 42h3v1h-3zM10 42h8v1h-8zM22 42h2v1h-2zM28 42h14v1h-14zM51 42h1v1h-1zM58 42h3v1h-3zM3 43h3v1h-3zM10 43h8v1h-8zM22 43h2v1h-2zM28 43h14v1h-14zM46 43h2v1h-2zM52 43h2v1h-2zM58 43h3v1h-3zM3 44h3v1h-3zM22 44h2v1h-2zM28 44h14v1h-14zM46 44h2v1h-2zM52 44h2v1h-2zM58 44h3v1h-3zM3 45h3v1h-3zM22 45h2v1h-2zM28 45h14v1h-14zM46 45h2v1h-2zM52 45h2v1h-2zM58 45h3v1h-3zM3 46h3v1h-3zM22 46h2v1h-2zM28 46h14v1h-14zM46 46h2v1h-2zM52 46h2v1h-2zM58 46h3v1h-3zM3 47h3v1h-3zM22 47h2v1h-2zM28 47h14v1h-14zM46 47h3v1h-3zM52 47h2v1h-2zM58 47h3v1h-3zM3 48h3v1h-3zM22 48h2v1h-2zM28 48h14v1h-14zM46 48h3v1h-3zM52 48h2v1h-2zM58 48h3v1h-3zM3 49h1v1h-1zM60 49h1v1h-1zM3 50h3v1h-3zM10 50h8v1h-8zM22 50h2v1h-2zM28 50h14v1h-14zM46 50h8v1h-8zM58 50h3v1h-3zM3 51h3v1h-3zM10 51h8v1h-8zM22 51h2v1h-2zM28 51h14v1h-14zM46 51h8v1h-8zM58 51h3v1h-3zM3 52h3v1h-3zM10 52h8v1h-8zM22 52h2v1h-2zM28 52h14v1h-14zM46 52h8v1h-8zM58 52h3v1h-3zM3 53h3v1h-3zM10 53h8v1h-8zM22 53h2v1h-2zM39 53h3v1h-3zM46 53h8v1h-8zM58 53h3v1h-3zM3 54h3v1h-3zM10 54h8v1h-8zM22 54h2v1h-2zM39 54h3v1h-3zM46 54h8v1h-8zM58 54h3v1h-3zM3 55h3v1h-3zM10 55h8v1h-8zM22 55h2v1h-2zM40 55h2v1h-2zM46 55h8v1h-8zM58 55h3v1h-3zM3 56h4v1h-4zM10 56h9v1h-9zM22 56h3v1h-3zM40 56h3v1h-3zM46 56h9v1h-9zM58 56h3v1h-3zM3 57h4v1h-4zM10 57h9v1h-9zM22 57h3v1h-3zM40 57h3v1h-3zM46 57h9v1h-9zM58 57h3v1h-3z"/>
<path fill="#dfe2e9" d="M22 33h1v1h-1zM24 33h1v1h-1zM39 33h1v1h-1zM41 33h1v1h-1z"/>
<path fill="#fbf4e4" d="M9 35h9v1h-9zM24 35h3v1h-3zM42 35h3v1h-3zM54 35h3v1h-3zM9 36h9v1h-9zM24 36h3v1h-3zM42 36h3v1h-3zM54 36h3v1h-3zM9 37h9v1h-9zM24 37h3v1h-3zM42 37h3v1h-3zM54 37h3v1h-3zM6 38h3v1h-3zM18 38h3v1h-3zM24 38h3v1h-3zM42 38h6v1h-6zM51 38h6v1h-6zM6 39h3v1h-3zM18 39h3v1h-3zM24 39h3v1h-3zM42 39h6v1h-6zM51 39h6v1h-6zM6 40h3v1h-3zM18 40h3v1h-3zM24 40h3v1h-3zM42 40h6v1h-6zM51 40h6v1h-6zM6 41h3v1h-3zM18 41h3v1h-3zM24 41h3v1h-3zM42 41h3v1h-3zM48 41h3v1h-3zM54 41h3v1h-3zM6 42h3v1h-3zM18 42h3v1h-3zM24 42h3v1h-3zM42 42h3v1h-3zM48 42h3v1h-3zM54 42h3v1h-3zM6 43h3v1h-3zM18 43h3v1h-3zM24 43h3v1h-3zM42 43h3v1h-3zM48 43h3v1h-3zM54 43h3v1h-3zM6 44h15v1h-15zM24 44h3v1h-3zM42 44h3v1h-3zM48 44h3v1h-3zM54 44h3v1h-3zM6 45h15v1h-15zM24 45h3v1h-3zM42 45h3v1h-3zM48 45h3v1h-3zM54 45h3v1h-3zM6 46h15v1h-15zM24 46h3v1h-3zM42 46h3v1h-3zM48 46h3v1h-3zM54 46h3v1h-3zM6 47h3v1h-3zM18 47h3v1h-3zM24 47h3v1h-3zM42 47h3v1h-3zM54 47h3v1h-3zM6 48h3v1h-3zM18 48h3v1h-3zM24 48h3v1h-3zM42 48h3v1h-3zM54 48h3v1h-3zM6 49h3v1h-3zM18 49h3v1h-3zM24 49h3v1h-3zM42 49h3v1h-3zM54 49h3v1h-3zM6 50h3v1h-3zM18 50h3v1h-3zM24 50h3v1h-3zM42 50h3v1h-3zM54 50h3v1h-3zM6 51h3v1h-3zM18 51h3v1h-3zM24 51h3v1h-3zM42 51h3v1h-3zM54 51h3v1h-3zM6 52h3v1h-3zM18 52h3v1h-3zM24 52h3v1h-3zM42 52h3v1h-3zM54 52h3v1h-3zM6 53h3v1h-3zM18 53h3v1h-3zM24 53h15v1h-15zM42 53h3v1h-3zM54 53h3v1h-3zM6 54h3v1h-3zM18 54h3v1h-3zM24 54h15v1h-15zM42 54h3v1h-3zM54 54h3v1h-3zM6 55h3v1h-3zM18 55h3v1h-3zM24 55h15v1h-15zM42 55h3v1h-3zM54 55h3v1h-3z"/>
<path fill="#8a5630" d="M4 41h2v1h-2zM10 41h8v1h-8zM22 41h2v1h-2zM28 41h14v1h-14zM51 41h1v1h-1zM58 41h2v1h-2zM4 49h2v1h-2zM10 49h8v1h-8zM22 49h2v1h-2zM28 49h14v1h-14zM46 49h8v1h-8zM58 49h2v1h-2z"/>
<path fill="#6cbd50" d="M0 42h2v1h-2zM62 42h2v1h-2zM0 43h2v1h-2zM62 43h2v1h-2zM0 44h2v1h-2zM62 44h2v1h-2zM0 45h2v1h-2zM62 45h2v1h-2zM0 46h2v1h-2zM62 46h2v1h-2zM0 47h2v1h-2zM62 47h2v1h-2zM0 48h2v1h-2zM62 48h2v1h-2zM0 49h2v1h-2zM62 49h2v1h-2zM0 50h2v1h-2zM62 50h2v1h-2zM0 51h2v1h-2zM62 51h2v1h-2zM0 52h2v1h-2zM62 52h2v1h-2zM0 53h2v1h-2zM62 53h2v1h-2zM0 54h2v1h-2zM62 54h2v1h-2zM0 55h2v1h-2zM62 55h2v1h-2zM0 56h2v1h-2zM62 56h2v1h-2zM0 57h2v1h-2zM62 57h2v1h-2zM0 58h3v1h-3zM61 58h3v1h-3zM0 59h13v1h-13zM20 59h24v1h-24zM51 59h13v1h-13zM0 60h13v1h-13zM20 60h24v1h-24zM51 60h13v1h-13zM0 61h13v1h-13zM20 61h24v1h-24zM51 61h13v1h-13zM0 62h13v1h-13zM20 62h24v1h-24zM51 62h13v1h-13zM0 63h13v1h-13zM20 63h24v1h-24zM51 63h13v1h-13z"/>
<path fill="#6e4220" d="M14 58h5v1h-5zM45 58h5v1h-5zM14 59h5v1h-5zM45 59h5v1h-5zM14 60h5v1h-5zM45 60h5v1h-5zM14 61h5v1h-5zM45 61h5v1h-5zM14 62h5v1h-5zM45 62h5v1h-5zM14 63h5v1h-5zM45 63h5v1h-5z"/>
</svg>
